<?xml version="1.0" standalone="no"?>
<!DOCTYPE svg PUBLIC "-//W3C//DTD SVG 20010904//EN"
 "http://www.w3.org/TR/2001/REC-SVG-20010904/DTD/svg10.dtd">
<svg version="1.0" xmlns="http://www.w3.org/2000/svg"
 width="260.000000pt" height="260.000000pt" viewBox="0 0 260.000000 260.000000"
 preserveAspectRatio="xMidYMid meet">
<metadata>
Created by potrace 1.11, written by Peter Selinger 2001-2013
</metadata>
<g transform="translate(0.000000,260.000000) scale(0.100000,-0.100000)"
fill="#000000" stroke="none">
<path d="M946 2522 c-3 -5 1 -9 9 -9 8 0 12 4 9 9 -3 4 -7 8 -9 8 -2 0 -6 -4
-9 -8z"/>
<path d="M1014 2518 c-4 -7 -4 -10 1 -6 4 4 15 2 24 -5 14 -11 14 -10 2 6 -16
20 -18 21 -27 5z"/>
<path d="M1076 2495 c-9 -26 -7 -32 5 -12 6 10 9 21 6 23 -2 3 -7 -2 -11 -11z"/>
<path d="M996 2485 c4 -8 8 -15 10 -15 2 0 4 7 4 15 0 8 -4 15 -10 15 -5 0 -7
-7 -4 -15z"/>
<path d="M936 2461 c9 -9 34 -9 34 -1 0 5 -9 8 -20 7 -10 -1 -17 -3 -14 -6z"/>
<path d="M1015 2459 c-4 -6 -5 -12 -2 -15 2 -3 7 2 10 11 7 17 1 20 -8 4z"/>
<path d="M1136 2462 c-3 -4 4 -9 15 -9 23 -2 25 3 4 10 -8 4 -16 3 -19 -1z"/>
<path d="M977 2441 c-4 -17 -3 -21 5 -13 5 5 8 16 6 23 -3 8 -7 3 -11 -10z"/>
<path d="M1035 2449 c-4 -6 -5 -12 -2 -15 2 -3 7 2 10 11 7 17 1 20 -8 4z"/>
<path d="M1056 2433 c-6 -14 -5 -15 5 -6 7 7 10 15 7 18 -3 3 -9 -2 -12 -12z"/>
<path d="M1111 2427 c-8 -10 -7 -14 2 -14 8 0 14 6 14 14 0 7 -1 13 -2 13 -2
0 -8 -6 -14 -13z"/>
<path d="M996 2413 c-6 -14 -5 -15 5 -6 7 7 10 15 7 18 -3 3 -9 -2 -12 -12z"/>
<path d="M1148 2413 c7 -3 16 -2 19 1 4 3 -2 6 -13 5 -11 0 -14 -3 -6 -6z"/>
<path d="M1495 2400 c-3 -5 -1 -10 4 -10 6 0 11 5 11 10 0 6 -2 10 -4 10 -3 0
-8 -4 -11 -10z"/>
<path d="M1073 2368 c-1 -10 3 -18 9 -18 6 0 8 3 5 7 -4 3 -2 11 3 18 7 8 6
12 -3 12 -7 0 -14 -9 -14 -19z"/>
<path d="M1156 2381 c-3 -5 0 -14 8 -20 10 -9 15 -8 19 3 4 11 1 13 -10 9 -11
-4 -14 -2 -9 5 4 7 5 12 2 12 -3 0 -7 -4 -10 -9z"/>
<path d="M1456 2378 c3 -5 10 -6 15 -3 13 9 11 12 -6 12 -8 0 -12 -4 -9 -9z"/>
<path d="M1210 2361 c0 -6 4 -13 10 -16 6 -3 7 1 4 9 -7 18 -14 21 -14 7z"/>
<path d="M1310 2366 c0 -2 7 -7 16 -10 8 -3 12 -2 9 4 -6 10 -25 14 -25 6z"/>
<path d="M1410 2361 c0 -6 4 -13 10 -16 6 -3 7 1 4 9 -7 18 -14 21 -14 7z"/>
<path d="M1533 2355 c0 -8 4 -12 9 -9 5 3 6 10 3 15 -9 13 -12 11 -12 -6z"/>
<path d="M1115 2349 c-4 -6 -5 -12 -2 -15 2 -3 7 2 10 11 7 17 1 20 -8 4z"/>
<path d="M1560 2335 c-7 -8 -16 -13 -20 -10 -4 3 -14 -3 -21 -13 -12 -15 -12
-16 2 -5 9 7 18 11 21 8 3 -3 13 4 23 15 10 11 16 20 13 20 -3 0 -11 -7 -18
-15z"/>
<path d="M1693 2337 c-3 -6 -1 -7 5 -3 6 3 15 -2 21 -11 9 -16 10 -16 8 3 -1
21 -23 28 -34 11z"/>
<path d="M1070 2336 c0 -2 8 -10 18 -17 15 -13 16 -12 3 4 -13 16 -21 21 -21
13z"/>
<path d="M1320 2318 l-25 -21 24 8 c18 5 22 4 16 -6 -5 -8 -4 -11 0 -6 6 5 16
49 11 47 -1 -1 -12 -10 -26 -22z"/>
<path d="M1273 2315 c0 -8 4 -12 9 -9 4 3 8 9 8 15 0 5 -4 9 -8 9 -5 0 -9 -7
-9 -15z"/>
<path d="M1053 2305 c0 -8 4 -12 9 -9 5 3 6 10 3 15 -9 13 -12 11 -12 -6z"/>
<path d="M1357 2295 c-4 -8 -3 -16 1 -19 4 -3 9 4 9 15 2 23 -3 25 -10 4z"/>
<path d="M1757 2297 c4 -6 0 -8 -9 -5 -8 4 -15 0 -15 -7 0 -10 5 -11 18 -4 24
12 31 26 14 26 -8 0 -11 -5 -8 -10z"/>
<path d="M1534 2289 c-3 -6 -2 -15 3 -20 5 -5 9 -1 9 11 0 23 -2 24 -12 9z"/>
<path d="M1700 2295 c0 -5 5 -17 10 -25 5 -8 10 -10 10 -5 0 6 -5 17 -10 25
-5 8 -10 11 -10 5z"/>
<path d="M1298 2272 c4 -10 7 -12 10 -4 2 7 9 9 15 5 7 -3 8 -2 4 2 -14 16
-36 14 -29 -3z"/>
<path d="M1796 2277 c3 -10 9 -15 12 -12 3 3 0 11 -7 18 -10 9 -11 8 -5 -6z"/>
<path d="M1850 2270 c14 -11 27 -20 30 -20 3 0 6 -9 7 -19 1 -11 -4 -18 -12
-17 -19 3 -32 16 -15 16 10 0 10 3 0 15 -7 8 -16 13 -20 10 -5 -3 -11 0 -13 5
-3 6 -4 5 -2 -2 1 -7 8 -12 14 -10 6 1 11 -2 11 -8 0 -14 -16 -13 -41 3 -17
10 -22 9 -35 -8 -8 -11 -17 -19 -19 -17 -3 1 -11 2 -17 2 -9 0 -8 -3 2 -10 8
-5 12 -12 8 -15 -3 -3 -13 1 -22 10 -9 9 -16 12 -16 6 0 -6 9 -15 20 -21 20
-11 19 -30 -1 -30 -6 0 -7 5 -3 12 4 7 3 8 -4 4 -17 -10 -15 -26 3 -26 8 0 14
-6 13 -12 -2 -7 4 -12 13 -10 9 1 16 -5 16 -13 0 -20 -13 -19 -35 3 -17 17
-19 17 -37 -7 -19 -25 -19 -26 0 -11 17 14 18 13 12 -4 -4 -10 -2 -24 4 -32 8
-10 5 -13 -13 -12 -13 1 -29 6 -35 11 -23 17 -14 0 17 -33 16 -18 28 -36 25
-41 -7 -11 -43 23 -37 35 3 5 0 6 -7 2 -8 -5 -5 -14 11 -31 l23 -24 22 21 c13
12 23 17 23 10 0 -6 -12 -20 -26 -31 -15 -12 -22 -21 -17 -21 5 0 18 8 29 18
24 22 61 26 61 6 0 -9 -7 -12 -17 -9 -17 5 -45 -37 -33 -49 11 -11 43 -6 43 7
0 8 4 7 10 -3 13 -21 12 -30 -2 -26 -7 1 -10 1 -5 -1 4 -3 5 -10 1 -16 -3 -7
4 -1 15 12 19 21 26 20 22 -2 -1 -5 4 -5 10 -2 8 5 8 10 0 18 -18 18 -12 28 8
15 11 -7 17 -17 13 -23 -3 -5 2 -4 11 4 15 12 21 11 42 -9 14 -13 25 -18 25
-12 0 7 -5 12 -11 12 -5 0 -7 5 -3 11 4 8 9 8 17 0 14 -14 47 -14 47 0 0 5 4
8 10 4 5 -3 7 -13 4 -23 -5 -14 -4 -14 4 -2 7 9 8 18 1 26 -6 8 -6 14 0 18 5
3 12 1 14 -4 3 -6 4 -5 3 2 -2 7 -9 12 -15 11 -6 -2 -11 2 -11 7 0 5 -3 9 -7
9 -5 -1 -10 0 -13 1 -3 1 -13 3 -23 5 -17 3 -17 2 -3 -14 9 -10 13 -21 9 -24
-9 -10 -25 -9 -19 1 7 12 -12 38 -21 29 -4 -5 -1 -12 6 -16 9 -6 10 -11 2 -15
-6 -4 -11 -2 -11 4 0 7 -7 9 -16 6 -10 -4 -13 -2 -9 7 4 6 0 4 -7 -5 -13 -15
-15 -15 -26 0 -7 9 -10 11 -6 3 5 -9 3 -12 -5 -7 -9 6 -9 11 0 22 6 8 9 18 5
21 -4 4 -11 1 -16 -7 -6 -10 -10 -11 -10 -3 0 19 40 37 53 24 8 -8 8 -11 -1
-11 -7 0 -12 -5 -12 -12 0 -6 3 -8 7 -5 3 4 12 2 19 -4 8 -7 14 -6 20 2 4 7 3
9 -4 5 -6 -3 -13 -2 -16 3 -6 10 10 24 31 27 6 1 14 -5 17 -13 5 -11 10 -12
20 -4 7 6 17 7 21 3 5 -4 5 -1 0 7 -6 10 -4 12 5 6 9 -6 11 -4 5 5 -6 9 -4 11
5 5 7 -4 16 -2 21 6 7 12 9 11 9 -1 0 -12 2 -12 9 -1 6 9 11 10 15 2 4 -6 2
-11 -4 -11 -6 0 -8 -5 -4 -11 5 -8 9 -8 14 1 5 9 9 9 14 1 4 -6 2 -11 -3 -11
-6 0 -11 -5 -11 -10 0 -6 8 -5 20 2 14 9 16 14 7 20 -9 6 -8 8 2 8 11 0 9 4
-5 14 -19 14 -19 14 1 13 15 -2 19 3 18 18 -2 18 -1 18 9 -2 6 -13 15 -23 21
-23 5 0 3 8 -4 17 -8 9 -9 14 -4 11 6 -4 17 -3 25 3 8 5 10 9 4 9 -16 0 -14
32 4 53 15 16 14 17 -3 11 -12 -5 -16 -4 -12 3 4 6 0 14 -8 17 -13 4 -13 2 -5
-14 14 -26 13 -35 -4 -21 -12 10 -17 8 -26 -9 -9 -16 -15 -19 -23 -11 -6 6
-18 11 -26 10 -9 0 -6 -4 8 -10 13 -5 22 -12 19 -14 -3 -3 -18 -1 -33 5 -23 9
-25 13 -15 25 9 10 9 15 1 15 -6 0 -11 -4 -11 -9 0 -14 -27 -7 -48 12 -10 9
-23 17 -28 17 -5 0 -1 -5 9 -11 9 -6 14 -15 11 -21 -4 -6 -2 -8 4 -4 6 3 15
-2 21 -11 7 -12 10 -13 11 -4 0 11 3 11 15 1 19 -16 20 -31 1 -24 -7 3 -20 -2
-29 -10 -17 -17 -42 -22 -33 -7 3 5 -1 12 -10 15 -14 5 -14 9 -3 24 11 14 11
15 -1 5 -15 -14 -24 -46 -10 -38 4 3 11 -2 14 -11 9 -24 7 -28 -9 -14 -8 7
-15 9 -15 4 0 -5 -5 -1 -11 9 -5 9 -8 21 -4 26 6 11 -22 8 -32 -4 -4 -4 -2 -5
5 -1 6 4 12 3 12 -3 0 -6 -12 -17 -27 -25 -16 -8 -22 -15 -15 -16 6 0 12 -5
12 -11 0 -5 -4 -7 -10 -4 -5 3 -10 1 -10 -5 0 -6 -5 -8 -10 -5 -6 4 -8 10 -6
14 3 4 1 13 -4 21 -7 12 -12 12 -22 2 -14 -14 -52 -16 -43 -2 4 6 10 8 15 5 4
-3 13 1 19 9 9 10 8 15 -4 20 -9 3 -13 11 -9 17 4 8 3 9 -4 5 -7 -4 -12 -2
-12 3 0 6 6 11 14 11 7 0 19 7 26 15 10 12 10 18 0 30 -15 18 1 20 18 3 7 -7
12 -8 12 -2 1 5 7 -4 14 -21 13 -29 13 -29 13 -5 0 14 2 31 4 39 2 7 -2 16
-10 19 -10 3 -12 0 -7 -14 6 -15 5 -17 -5 -6 -20 19 3 37 30 23 16 -9 19 -9
15 2 -3 8 2 14 11 14 9 0 14 -6 11 -14 -7 -18 21 -28 38 -14 7 6 22 9 32 5 18
-5 18 -5 1 6 -14 9 -22 9 -30 1 -6 -6 -18 -11 -26 -11 -14 1 -13 3 2 14 20 15
23 28 4 20 -8 -3 -13 4 -14 16 -1 11 2 18 6 16 4 -3 17 1 27 9 10 8 14 15 7
15 -6 0 -15 -5 -18 -10 -4 -6 -22 2 -45 20 -21 16 -42 30 -46 30 -5 0 2 -9 16
-20z m-34 -42 c4 -7 3 -8 -5 -4 -6 4 -11 4 -10 -1 4 -25 -1 -35 -14 -24 -10 8
-14 7 -14 -2 0 -7 10 -13 23 -13 12 0 20 5 17 12 -5 15 26 27 41 15 6 -4 19
-7 29 -6 9 2 15 -1 11 -6 -3 -5 -9 -7 -14 -4 -5 3 -11 1 -15 -5 -4 -6 -11 -8
-16 -4 -15 9 -41 -17 -34 -35 4 -13 2 -12 -9 2 -11 15 -15 15 -25 3 -8 -10 -9
-16 -1 -21 13 -8 13 -25 0 -25 -5 0 -9 6 -7 13 1 6 -5 11 -14 11 -20 -2 -19
28 1 34 10 4 9 6 -1 13 -12 7 -12 9 0 9 11 0 11 3 1 15 -10 12 -8 13 10 10 16
-3 20 0 16 10 -6 18 19 20 30 3z m-72 -131 c4 4 4 0 1 -8 -3 -9 1 -22 10 -29
16 -13 21 -35 6 -26 -4 3 -16 -3 -26 -14 -18 -20 -18 -20 -33 1 -8 11 -11 23
-8 26 3 4 6 1 6 -7 0 -10 3 -10 15 0 8 7 11 17 7 24 -4 6 -7 22 -7 34 -1 20 1
21 11 8 6 -9 14 -13 18 -9z m381 -35 c3 -19 1 -21 -15 -12 -20 11 -36 -2 -25
-20 3 -5 1 -10 -4 -10 -17 0 -13 29 7 55 18 25 30 21 37 -13z m-70 -28 c0 -10
4 -26 9 -34 8 -13 6 -13 -10 1 -17 13 -34 17 -49 9 -3 -1 -8 -3 -12 -4 -5 -1
-17 -7 -29 -13 -16 -9 -24 -9 -33 0 -9 9 -16 9 -30 0 -15 -10 -22 -9 -35 5
-14 16 -14 19 4 29 15 10 19 9 24 -3 3 -8 10 -13 15 -9 5 3 12 1 16 -5 4 -6
15 -4 30 6 13 9 29 13 34 9 6 -3 19 -1 28 4 10 6 14 11 10 11 -5 0 -5 5 -2 11
10 16 30 5 30 -17z m-45 6 c0 -5 -4 -10 -10 -10 -5 0 -10 5 -10 10 0 6 5 10
10 10 6 0 10 -4 10 -10z m-205 -40 c-3 -5 -2 -11 3 -14 7 -4 8 -34 3 -70 0 -6
-7 -2 -14 9 -10 12 -16 14 -21 7 -4 -7 -14 -12 -22 -12 -11 0 -13 4 -5 17 5
10 17 18 27 18 18 0 28 31 13 41 -5 3 -7 10 -3 15 3 5 10 7 15 3 5 -3 7 -9 4
-14z m173 -87 c-6 -7 -15 -13 -20 -13 -7 0 -6 5 1 13 8 10 7 17 -2 26 -9 11
-7 10 10 0 16 -10 19 -16 11 -26z"/>
<path d="M1826 2202 c-2 -4 4 -8 14 -8 10 0 16 4 14 8 -3 4 -9 8 -14 8 -5 0
-11 -4 -14 -8z"/>
<path d="M1766 2165 c-11 -8 -15 -15 -9 -15 6 0 16 7 23 15 16 19 11 19 -14 0z"/>
<path d="M1720 2081 c0 -6 4 -13 10 -16 6 -3 7 1 4 9 -7 18 -14 21 -14 7z"/>
<path d="M1722 2035 c-7 -8 -9 -15 -4 -15 5 0 15 7 22 15 16 19 -1 19 -18 0z"/>
<path d="M1876 2011 c-4 -5 -2 -12 3 -15 5 -4 12 -2 15 3 4 5 2 12 -3 15 -5 4
-12 2 -15 -3z"/>
<path d="M1655 2270 c-3 -6 1 -7 9 -4 18 7 21 14 7 14 -6 0 -13 -4 -16 -10z"/>
<path d="M1238 2248 c2 -10 6 -18 7 -18 1 0 5 8 7 18 3 11 0 19 -7 19 -7 0
-10 -8 -7 -19z"/>
<path d="M1275 2260 c3 -5 8 -10 11 -10 2 0 4 5 4 10 0 6 -5 10 -11 10 -5 0
-7 -4 -4 -10z"/>
<path d="M1335 2259 c-4 -6 -5 -12 -2 -15 2 -3 7 2 10 11 7 17 1 20 -8 4z"/>
<path d="M1750 2260 c0 -5 5 -10 10 -10 6 0 10 5 10 10 0 6 -4 10 -10 10 -5 0
-10 -4 -10 -10z"/>
<path d="M1910 2259 c0 -5 5 -7 10 -4 6 3 10 8 10 11 0 2 -4 4 -10 4 -5 0 -10
-5 -10 -11z"/>
<path d="M1355 2251 c-3 -5 0 -13 6 -17 7 -4 9 -3 5 4 -3 5 0 13 6 15 9 4 10
6 1 6 -6 1 -14 -3 -18 -8z"/>
<path d="M1508 2253 c6 -2 9 -10 6 -15 -4 -7 -2 -8 5 -4 13 9 5 26 -12 25 -9
0 -8 -2 1 -6z"/>
<path d="M1676 2247 c3 -10 9 -15 12 -12 3 3 0 11 -7 18 -10 9 -11 8 -5 -6z"/>
<path d="M1209 2237 c6 -8 7 -18 3 -22 -4 -5 -1 -5 6 -1 10 6 10 11 1 22 -6 8
-14 14 -16 14 -3 0 0 -6 6 -13z"/>
<path d="M1294 2239 c-4 -7 -3 -9 4 -5 5 3 13 0 15 -6 4 -9 6 -10 6 -1 1 17
-16 25 -25 12z"/>
<path d="M1454 2235 c1 -8 6 -18 11 -22 4 -4 5 -3 2 4 -4 6 -2 13 5 15 8 3 6
6 -4 10 -10 4 -15 2 -14 -7z"/>
<path d="M1536 2233 c-6 -14 -5 -15 5 -6 7 7 10 15 7 18 -3 3 -9 -2 -12 -12z"/>
<path d="M1970 2236 c0 -8 4 -17 9 -20 5 -4 7 3 4 14 -6 23 -13 26 -13 6z"/>
<path d="M694 2216 c1 -8 5 -18 8 -22 4 -3 5 1 4 10 -1 8 -5 18 -8 22 -4 3 -5
-1 -4 -10z"/>
<path d="M850 2219 c0 -5 5 -7 10 -4 6 3 10 8 10 11 0 2 -4 4 -10 4 -5 0 -10
-5 -10 -11z"/>
<path d="M1256 2221 c-7 -11 0 -45 10 -48 14 -4 47 24 40 35 -8 13 -45 22 -50
13z m33 -27 c-16 -19 -24 -17 -26 5 -1 14 3 17 18 14 15 -4 17 -8 8 -19z"/>
<path d="M1341 2213 c12 -15 12 -16 -3 -10 -10 3 -17 3 -16 -1 3 -14 -14 -42
-23 -36 -5 3 -6 -3 -2 -13 6 -16 5 -17 -13 -3 -18 14 -18 14 -5 -3 14 -17 16
-18 27 -2 17 22 16 22 48 2 21 -14 30 -16 42 -6 17 14 18 5 4 -22 -7 -13 -7
-19 0 -19 5 0 10 7 10 16 0 8 4 13 10 9 5 -3 7 -12 3 -20 -3 -8 0 -15 7 -15 6
0 18 -7 26 -15 21 -20 46 -8 38 19 -6 18 -5 19 9 7 9 -7 14 -17 11 -22 -3 -5
0 -9 5 -9 6 0 11 6 11 13 0 8 3 7 10 -3 11 -18 -7 -32 -35 -24 -18 4 -18 4 -3
-6 13 -8 23 -8 38 0 15 8 20 8 20 -1 0 -7 3 -9 6 -6 4 4 1 13 -6 22 -17 20 5
48 31 40 11 -4 19 -2 19 4 0 6 -5 10 -11 8 -6 -1 -14 4 -17 12 -3 9 0 11 9 6
8 -5 11 -4 6 1 -5 5 -14 9 -20 9 -7 1 -11 7 -9 14 1 7 -2 9 -9 6 -8 -5 -8 -10
0 -18 13 -13 15 -37 3 -37 -4 0 -12 10 -17 23 -6 12 -13 21 -18 19 -12 -4 -35
22 -29 33 3 6 -1 5 -9 -2 -22 -18 -53 -9 -59 17 -4 15 -13 24 -27 25 -12 1
-20 -2 -17 -6 2 -4 0 -10 -6 -14 -5 -3 -10 -1 -10 5 0 6 -4 8 -10 5 -5 -3 -10
-1 -10 4 0 6 -5 11 -11 11 -8 0 -7 -6 2 -17z m76 -18 c-4 -8 -11 -15 -17 -15
-6 0 -8 6 -5 13 4 6 0 4 -8 -5 -11 -14 -16 -15 -27 -5 -12 10 -12 9 -1 -5 10
-13 18 -15 38 -7 31 12 45 3 38 -24 -2 -12 -2 -16 1 -9 3 6 10 10 15 7 5 -4 6
2 3 12 -5 17 -5 17 6 0 7 -10 9 -21 6 -25 -14 -14 -37 -9 -47 10 -7 14 -14 16
-23 9 -9 -7 -19 -6 -34 5 -12 8 -27 12 -32 9 -6 -3 -10 -2 -10 4 0 12 39 35
47 27 3 -3 15 1 26 9 24 17 32 13 24 -10z m102 -50 c7 3 31 -36 31 -50 0 -7
-29 1 -43 13 -10 9 -17 10 -22 2 -3 -6 -11 -8 -16 -5 -5 4 -9 1 -9 -4 0 -6 7
-11 16 -11 8 0 12 -5 9 -10 -4 -6 -15 -3 -30 7 -20 16 -26 41 -6 28 5 -2 16 4
26 15 11 13 14 20 6 20 -7 0 -9 5 -6 10 4 6 12 4 21 -5 9 -8 19 -13 23 -10z"/>
<path d="M1479 2123 c-13 -16 -12 -17 3 -5 11 9 18 10 23 2 8 -14 25 -13 25 2
0 6 -3 8 -7 5 -3 -4 -12 -2 -18 3 -9 7 -17 5 -26 -7z"/>
<path d="M1943 2222 c-7 -4 -9 -13 -4 -21 6 -9 10 -7 14 8 3 12 4 21 4 21 -1
0 -7 -4 -14 -8z"/>
<path d="M1472 2204 c-7 -8 -8 -14 -3 -14 10 0 25 19 20 25 -2 1 -10 -3 -17
-11z"/>
<path d="M1221 2196 c-9 -11 -9 -16 0 -22 7 -4 9 -3 5 4 -3 5 0 12 6 15 7 2
10 7 7 11 -3 4 -12 0 -18 -8z"/>
<path d="M1523 2203 c-7 -3 -13 -9 -13 -15 0 -7 5 -7 13 1 8 6 16 8 19 5 3 -3
8 -1 12 4 5 9 -10 12 -31 5z"/>
<path d="M1610 2198 c0 -4 4 -8 9 -8 6 0 12 4 15 8 3 5 -1 9 -9 9 -8 0 -15 -4
-15 -9z"/>
<path d="M1960 2200 c0 -5 5 -10 11 -10 5 0 7 5 4 10 -3 6 -8 10 -11 10 -2 0
-4 -4 -4 -10z"/>
<path d="M1696 2188 c5 -7 2 -9 -8 -6 -8 4 -15 0 -15 -7 0 -10 5 -11 19 -4 16
9 17 29 2 29 -3 0 -2 -5 2 -12z"/>
<path d="M1590 2170 c6 -11 15 -20 20 -20 6 0 2 9 -7 20 -10 11 -19 20 -21 20
-1 0 2 -9 8 -20z"/>
<path d="M1993 2170 c5 -29 13 -33 13 -5 0 14 -4 25 -8 25 -4 0 -7 -9 -5 -20z"/>
<path d="M1175 2171 c-3 -5 -2 -12 3 -15 5 -3 9 1 9 9 0 17 -3 19 -12 6z"/>
<path d="M1209 2153 c8 -15 17 -20 31 -16 25 7 27 16 3 11 -10 -2 -24 3 -31
12 -11 13 -12 12 -3 -7z"/>
<path d="M600 2140 c-9 -6 -10 -10 -3 -10 6 0 15 5 18 10 8 12 4 12 -15 0z"/>
<path d="M1006 2138 c3 -5 10 -6 15 -3 13 9 11 12 -6 12 -8 0 -12 -4 -9 -9z"/>
<path d="M1156 2141 c-3 -5 1 -14 9 -21 8 -7 15 -9 15 -4 0 5 5 1 11 -9 6 -9
15 -14 21 -11 7 5 9 1 5 -9 -3 -10 -2 -17 4 -17 6 0 9 8 7 18 -2 9 -10 16 -17
14 -9 -2 -11 3 -7 13 3 9 2 13 -4 10 -6 -3 -10 0 -10 7 0 9 -3 9 -10 -2 -9
-13 -14 -7 -11 13 1 10 -7 9 -13 -2z"/>
<path d="M1633 2135 c0 -8 4 -12 9 -9 4 3 8 9 8 15 0 5 -4 9 -8 9 -5 0 -9 -7
-9 -15z"/>
<path d="M1680 2130 c-6 -11 -8 -20 -6 -20 3 0 10 9 16 20 6 11 8 20 6 20 -3
0 -10 -9 -16 -20z"/>
<path d="M1867 2143 c-13 -12 -7 -28 16 -42 21 -13 22 -13 5 6 -20 21 -24 38
-8 28 6 -3 10 -1 10 4 0 12 -13 14 -23 4z"/>
<path d="M1970 2145 c0 -19 19 -40 27 -30 5 6 6 9 4 8 -2 -2 -10 5 -17 15 -7
9 -13 13 -14 7z"/>
<path d="M2175 2141 c-3 -5 -2 -12 3 -15 5 -3 9 1 9 9 0 17 -3 19 -12 6z"/>
<path d="M915 2129 c-4 -6 -5 -12 -2 -15 2 -3 7 2 10 11 7 17 1 20 -8 4z"/>
<path d="M1322 2133 c-13 -5 -7 -23 9 -23 6 0 7 5 3 12 -5 8 -2 9 10 5 10 -4
15 -3 11 3 -7 11 -13 11 -33 3z"/>
<path d="M1252 2113 c3 -18 45 -26 55 -10 3 6 1 7 -5 3 -7 -4 -12 -2 -12 5 0
8 -5 7 -17 -2 -15 -12 -16 -12 -10 4 3 9 2 17 -4 17 -6 0 -9 -8 -7 -17z"/>
<path d="M2040 2120 c0 -5 5 -10 11 -10 5 0 7 5 4 10 -3 6 -8 10 -11 10 -2 0
-4 -4 -4 -10z"/>
<path d="M2073 2109 c-2 -23 3 -25 10 -4 4 8 3 16 -1 19 -4 3 -9 -4 -9 -15z"/>
<path d="M1363 2113 c-15 -5 -17 -23 -4 -23 5 0 11 7 15 15 3 8 4 15 3 14 -1
0 -8 -3 -14 -6z"/>
<path d="M819 2108 c-5 -18 -6 -38 -1 -34 7 8 12 36 6 36 -2 0 -4 -1 -5 -2z"/>
<path d="M1636 2093 c-6 -14 -5 -15 5 -6 7 7 10 15 7 18 -3 3 -9 -2 -12 -12z"/>
<path d="M1814 2103 c3 -6 -1 -13 -9 -15 -13 -2 -13 -5 3 -14 16 -10 18 -9 17
7 -1 10 -5 22 -10 26 -4 5 -5 3 -1 -4z"/>
<path d="M2170 2098 c0 -4 5 -10 10 -13 6 -3 10 -1 10 5 0 6 5 8 10 5 6 -3 10
-2 10 4 0 5 -9 9 -20 8 -11 -1 -20 -5 -20 -9z"/>
<path d="M1660 2091 c0 -10 19 -25 25 -20 1 2 -3 10 -11 17 -8 7 -14 8 -14 3z"/>
<path d="M1310 2080 c0 -5 5 -10 11 -10 5 0 7 5 4 10 -3 6 -8 10 -11 10 -2 0
-4 -4 -4 -10z"/>
<path d="M1380 2086 c0 -2 7 -6 15 -10 8 -3 15 -1 15 4 0 6 -7 10 -15 10 -8 0
-15 -2 -15 -4z"/>
<path d="M1570 2080 c0 -5 5 -10 10 -10 6 0 10 5 10 10 0 6 -4 10 -10 10 -5 0
-10 -4 -10 -10z"/>
<path d="M2150 2081 c0 -6 6 -11 13 -11 8 0 7 -4 -3 -10 -8 -5 -10 -10 -5 -10
6 0 3 -6 -6 -13 -9 -7 -18 -16 -20 -22 -2 -5 -10 -9 -16 -9 -7 1 -14 -2 -14
-7 -1 -5 -2 -13 -3 -17 0 -5 -9 -16 -18 -26 -19 -18 -15 -43 7 -43 10 0 11 5
5 17 -6 12 -5 17 6 17 7 0 14 -5 14 -10 0 -5 7 -6 16 -3 8 3 13 2 10 -2 -3 -5
0 -9 7 -9 7 0 20 -4 31 -8 15 -7 17 -5 12 13 -9 27 28 52 38 26 9 -24 7 -27
-9 -14 -20 17 -30 7 -16 -17 7 -12 10 -14 11 -4 0 8 3 11 6 8 4 -3 15 -2 25 4
13 7 25 6 37 -1 15 -9 14 -10 -5 -5 -14 4 -23 2 -23 -5 0 -6 5 -8 12 -4 7 4 8
3 4 -4 -5 -8 -2 -10 8 -6 9 3 16 1 16 -6 0 -6 4 -8 10 -5 6 3 7 -1 4 -9 -4
-10 -1 -16 7 -16 7 0 9 -3 5 -7 -4 -5 -13 -8 -19 -8 -7 0 -12 -10 -11 -22 0
-12 -4 -19 -9 -16 -6 4 -7 1 -2 -7 6 -9 4 -11 -5 -5 -8 5 -11 4 -6 -3 9 -14
-31 -41 -55 -37 -10 2 -19 0 -19 -6 0 -5 -8 -1 -18 9 -10 9 -14 20 -9 23 5 4
4 9 -2 13 -6 4 -11 2 -11 -4 0 -6 -4 -9 -9 -5 -5 3 -12 1 -16 -5 -3 -5 -11
-10 -18 -10 -8 0 -8 3 0 11 6 6 9 19 5 28 -4 13 -3 14 9 5 8 -6 43 -10 79 -10
53 1 65 5 68 19 2 9 -2 17 -8 17 -6 0 -9 -4 -6 -8 2 -4 -4 -8 -14 -9 -10 -1
-21 5 -24 14 -4 8 -13 13 -21 9 -8 -3 -15 -2 -15 3 0 4 -7 8 -15 8 -9 0 -14
-5 -12 -11 3 -6 10 -10 16 -8 6 1 11 -3 11 -9 0 -6 -6 -9 -14 -6 -7 3 -19 0
-26 -6 -10 -9 -11 -9 -5 2 6 10 4 12 -5 6 -9 -6 -11 -4 -5 5 6 9 4 11 -6 6 -8
-4 -4 1 9 12 15 14 18 22 10 25 -10 4 -10 6 0 6 7 1 11 5 7 11 -3 5 -12 7 -20
4 -8 -4 -12 -10 -9 -15 9 -15 -15 -49 -31 -43 -8 4 -15 1 -15 -7 0 -7 3 -9 7
-6 12 12 32 -27 21 -40 -7 -9 -5 -15 7 -19 10 -4 21 -1 26 7 9 15 9 15 13 -20
2 -14 8 -27 15 -29 6 -2 9 -8 5 -13 -3 -5 0 -9 6 -9 7 0 9 7 6 16 -4 10 -1 14
6 11 7 -2 12 -14 11 -26 -2 -11 2 -21 7 -21 6 0 9 3 9 8 -3 18 2 32 12 32 5 0
8 -4 5 -8 -3 -5 1 -9 9 -9 12 0 12 3 2 16 -10 12 -9 14 6 8 14 -5 20 -2 24 14
6 20 7 20 18 5 11 -15 13 -15 19 -1 3 9 2 14 -2 12 -9 -6 -33 19 -25 27 3 3
12 1 20 -6 7 -6 16 -8 20 -4 3 3 1 6 -6 6 -7 0 -10 4 -6 9 3 5 1 12 -5 16 -5
3 -10 14 -9 23 0 11 2 12 6 4 2 -7 13 -17 24 -22 15 -8 17 -7 13 5 -3 8 -10
12 -15 9 -5 -3 -9 -1 -9 5 0 5 6 11 13 14 9 3 9 7 0 19 -7 8 -10 18 -6 22 4 4
13 -4 19 -16 l13 -23 -2 22 c-1 12 -7 25 -14 27 -7 3 -13 11 -13 17 0 8 4 8
13 1 9 -8 17 -8 27 0 13 8 12 9 -1 5 -9 -3 -21 -1 -27 5 -8 8 -13 7 -18 -5 -8
-21 -21 -22 -21 -2 0 8 9 17 19 21 10 3 18 10 18 15 0 6 -4 8 -9 5 -5 -3 -11
1 -15 9 -6 18 -36 9 -36 -11 0 -8 -4 -14 -10 -14 -5 0 -9 19 -7 42 1 28 -2 43
-10 44 -26 3 -28 5 -14 13 11 7 9 11 -9 21 -15 8 -20 8 -16 1 10 -16 -6 -14
-32 5 -12 8 -22 10 -22 5z m65 -30 c-8 -7 17 -31 26 -25 5 3 9 0 9 -5 0 -6 -5
-11 -11 -11 -8 0 -7 -6 2 -17 10 -11 10 -14 2 -9 -16 9 -16 1 -2 -27 10 -22
10 -22 -8 1 -17 21 -20 21 -41 6 -13 -9 -21 -22 -18 -30 5 -12 2 -12 -17 -2
-12 7 -25 13 -29 14 -5 1 -11 3 -15 4 -5 1 -12 2 -17 1 -12 -3 14 31 34 44 8
5 20 10 25 11 6 0 16 2 23 2 7 1 11 6 7 12 -3 5 -13 6 -22 3 -14 -5 -13 -4 1
13 9 11 25 20 36 20 10 0 17 -2 15 -5z m82 -103 c-22 -14 -28 -8 -16 13 9 17
13 19 20 8 5 -8 3 -16 -4 -21z m-92 -108 c3 -5 1 -10 -4 -10 -6 0 -11 5 -11
10 0 6 2 10 4 10 3 0 8 -4 11 -10z m58 -80 c-3 -11 -9 -17 -14 -14 -5 3 -17 0
-28 -6 -13 -7 -22 -7 -26 0 -3 5 2 10 12 10 11 0 28 7 39 15 10 8 20 15 21 15
0 0 -1 -9 -4 -20z m-93 -6 c0 -8 -4 -12 -10 -9 -5 3 -10 10 -10 16 0 5 5 9 10
9 6 0 10 -7 10 -16z"/>
<path d="M2180 2043 c0 -6 4 -14 10 -18 5 -3 7 -12 4 -19 -9 -22 14 -28 25 -7
8 14 7 22 -4 31 -8 7 -15 9 -15 4 0 -5 -5 -2 -10 6 -6 9 -10 10 -10 3z m33
-38 c-7 -21 -12 -19 -10 4 0 11 5 18 9 15 4 -3 5 -11 1 -19z"/>
<path d="M2123 1978 c-9 -10 -13 -19 -10 -19 4 -1 10 -2 15 -3 4 -1 12 -5 18
-8 6 -4 20 2 30 14 11 12 13 18 5 13 -10 -6 -13 -4 -9 6 8 21 -29 19 -49 -3z
m41 -20 c-4 -5 -11 -5 -18 1 -7 6 -17 7 -22 3 -4 -4 -2 1 5 11 10 13 17 15 27
6 8 -6 11 -15 8 -21z"/>
<path d="M2220 2086 c0 -2 7 -7 16 -10 8 -3 12 -2 9 4 -6 10 -25 14 -25 6z"/>
<path d="M1267 2067 c-3 -8 1 -14 8 -14 7 0 11 6 8 14 -3 7 -6 13 -8 13 -2 0
-5 -6 -8 -13z"/>
<path d="M1170 2061 c0 -6 4 -13 10 -16 6 -3 7 1 4 9 -7 18 -14 21 -14 7z"/>
<path d="M1420 2066 c0 -2 7 -7 16 -10 8 -3 12 -2 9 4 -6 10 -25 14 -25 6z"/>
<path d="M1596 2054 c-20 -19 -20 -21 -1 -21 8 0 13 3 10 5 -3 3 0 11 6 19 16
18 4 16 -15 -3z"/>
<path d="M1780 2066 c0 -2 7 -7 16 -10 8 -3 12 -2 9 4 -6 10 -25 14 -25 6z"/>
<path d="M1228 2053 c7 -3 16 -2 19 1 4 3 -2 6 -13 5 -11 0 -14 -3 -6 -6z"/>
<path d="M1339 2058 c-5 -18 -6 -38 -1 -34 7 8 12 36 6 36 -2 0 -4 -1 -5 -2z"/>
<path d="M2262 2040 c7 -10 14 -18 15 -16 6 6 -9 36 -18 36 -5 0 -4 -9 3 -20z"/>
<path d="M1360 2041 c0 -5 7 -12 16 -15 14 -5 15 -4 4 9 -14 17 -20 19 -20 6z"/>
<path d="M1820 2040 c0 -5 5 -10 11 -10 5 0 7 5 4 10 -3 6 -8 10 -11 10 -2 0
-4 -4 -4 -10z"/>
<path d="M1233 2007 c-1 -11 -1 -18 0 -16 2 2 8 11 15 20 9 12 9 16 -1 16 -7
0 -14 -9 -14 -20z"/>
<path d="M1512 2018 c2 -6 10 -13 16 -14 7 -1 8 0 2 3 -5 2 -8 9 -4 14 3 5 0
9 -6 9 -7 0 -10 -5 -8 -12z"/>
<path d="M62 1971 c3 -27 17 -72 31 -100 l27 -51 0 -570 0 -570 59 0 59 0 -5
-44 c-7 -57 31 -143 78 -178 89 -66 185 -63 269 9 40 34 47 37 113 39 66 1 72
-1 94 -27 73 -87 208 -91 295 -9 40 38 44 40 108 40 64 0 68 -2 108 -40 85
-80 200 -80 285 2 40 38 45 40 107 40 63 1 67 -1 107 -40 117 -112 301 -61
343 97 7 25 27 61 43 78 l31 33 108 0 108 0 0 227 c0 218 1 226 18 210 10 -10
23 -17 27 -17 5 0 35 -26 67 -57 l58 -57 0 174 0 174 -58 -57 c-32 -31 -62
-57 -67 -57 -4 0 -17 -7 -27 -17 -17 -15 -18 -12 -18 84 0 108 -11 133 -58
133 -21 0 -22 3 -22 125 l0 125 -130 0 -130 0 0 -130 0 -130 -75 0 -75 0 0 73
c0 82 -9 97 -57 97 -23 0 -33 5 -33 15 0 8 -4 15 -10 15 -5 0 -10 -7 -10 -15
0 -10 -10 -15 -33 -15 -48 0 -57 -15 -57 -97 l0 -73 -50 0 -50 0 0 55 0 55
-55 0 -55 0 0 -60 0 -60 -75 0 -75 0 0 90 0 90 -105 0 -105 0 0 -90 0 -90
-125 0 -125 0 0 310 0 310 -431 0 -432 0 5 -49z m708 -336 l0 -235 -59 0 c-53
0 -59 2 -54 19 8 30 -15 155 -30 166 -16 12 -30 85 -16 85 36 0 -27 63 -96 96
-76 36 -124 31 -177 -21 -33 -31 -35 -41 -9 -55 15 -7 23 -6 35 5 13 13 20 14
38 4 45 -23 58 -41 58 -81 0 -32 4 -41 21 -45 20 -6 20 -6 -5 -32 -29 -31 -46
-71 -46 -112 l0 -29 -85 0 -85 0 0 235 0 235 255 0 255 0 0 -235z m-443 -971
c24 -9 43 -20 43 -24 0 -8 -107 -6 -116 3 -10 9 4 37 18 37 7 0 32 -7 55 -16z
m58 6 c8 -13 -5 -13 -25 0 -13 8 -13 10 2 10 9 0 20 -4 23 -10z m145 0 c-20
-13 -33 -13 -25 0 3 6 14 10 23 10 15 0 15 -2 2 -10z m98 -16 c3 -18 -2 -20
-53 -20 -30 1 -55 4 -55 7 0 9 72 38 90 36 8 -1 16 -11 18 -23z m107 -39 c1
-38 -3 -65 -10 -66 -5 -1 -26 -2 -46 -3 l-36 -2 1 68 1 68 45 0 45 0 0 -65z
m92 48 c24 -10 43 -21 43 -24 0 -8 -108 -5 -116 4 -10 9 4 37 18 37 7 0 32 -8
55 -17z m58 7 c7 -12 -2 -12 -30 0 -19 8 -19 9 2 9 12 1 25 -3 28 -9z m154 6
c-2 -2 -15 -9 -29 -16 -23 -12 -24 -12 -11 3 7 10 20 17 29 17 8 0 13 -2 11
-4z m88 -11 c3 -9 3 -19 -1 -22 -7 -7 -116 -12 -116 -6 0 6 83 41 98 42 7 1
15 -6 19 -14z m108 -50 l1 -65 -46 0 -46 0 1 65 0 65 45 0 45 0 0 -65z m99 45
c25 -10 46 -21 46 -22 0 -2 -29 -3 -65 -4 -54 0 -65 3 -65 16 0 36 20 38 84
10z m57 3 c13 -15 12 -15 -11 -3 -34 17 -36 20 -18 20 9 0 22 -7 29 -17z m139
7 c-20 -13 -33 -13 -25 0 3 6 14 10 23 10 15 0 15 -2 2 -10z m98 -15 c3 -19
-3 -21 -58 -21 -33 0 -60 2 -60 4 0 7 86 41 100 39 8 -1 16 -11 18 -22z m107
-40 l1 -65 -46 1 -46 2 1 63 0 64 45 0 45 0 0 -65z m99 45 c25 -10 46 -21 46
-22 0 -2 -29 -3 -65 -4 -61 0 -64 1 -63 23 3 29 22 29 82 3z m56 10 c0 -13
-11 -13 -30 0 -12 8 -11 10 8 10 12 0 22 -4 22 -10z m140 0 c-20 -13 -33 -13
-25 0 3 6 14 10 23 10 15 0 15 -2 2 -10z m97 -5 c3 -9 3 -19 -1 -22 -7 -7
-116 -12 -116 -6 0 6 83 41 98 42 7 1 15 -6 19 -14z m-1747 -54 c3 -1 -22 -13
-54 -26 -61 -26 -75 -23 -76 15 0 12 12 15 63 14 34 -1 64 -2 67 -3z m247 -11
c7 -37 -12 -41 -70 -15 -31 13 -57 26 -57 28 0 2 28 3 62 2 47 0 64 -4 65 -15z
m249 7 c4 -4 2 -7 -4 -7 -7 0 -33 -10 -58 -22 -48 -22 -63 -17 -64 24 0 14 10
16 60 14 32 -1 62 -5 66 -9z m254 -7 c-1 -37 -15 -41 -68 -18 -29 12 -52 25
-52 28 0 3 27 6 60 6 47 0 60 -4 60 -16z m204 -12 c-72 -33 -71 -33 -79 -8
-10 32 0 36 71 36 l67 -1 -59 -27z m293 12 c7 -37 -12 -41 -70 -15 -31 13 -57
26 -57 28 0 1 28 2 62 2 47 0 63 -4 65 -15z m205 -12 c-66 -30 -82 -29 -82 2
0 23 8 26 83 26 l61 0 -62 -28z m257 23 c2 -1 -2 -7 -8 -15 -10 -11 -19 -12
-42 -4 -44 15 -42 24 4 22 23 -1 44 -2 46 -3z m-1715 -43 c-27 -31 -68 -67
-76 -68 -4 0 -12 9 -18 20 -10 18 -5 23 42 44 67 31 76 31 52 4z m209 -17 c4
-5 -4 -7 -18 -7 -14 1 -35 12 -48 24 l-22 23 40 -16 c22 -9 44 -20 48 -24z
m292 20 c-20 -20 -75 -36 -75 -22 0 4 19 14 43 23 55 21 55 21 32 -1z m186
-19 c-14 -2 -32 5 -45 17 l-21 21 45 -17 c38 -15 41 -19 21 -21z m314 18 c-10
-11 -30 -20 -44 -20 -25 1 -25 2 9 20 45 25 58 25 35 0z m183 -18 c-11 -2 -30
6 -42 17 l-21 22 42 -18 c34 -14 38 -19 21 -21z m317 18 c-33 -22 -45 -25 -45
-11 0 5 12 14 28 19 43 16 49 13 17 -8z m155 5 c14 -8 19 -14 10 -14 -8 0 -24
6 -34 14 -25 19 -9 19 24 0z m-1620 -12 c-5 -10 -19 -40 -30 -66 -18 -43 -22
-47 -40 -37 -11 6 -20 14 -20 18 0 6 91 102 97 102 2 0 -1 -8 -7 -17z m504 3
c-3 -8 -13 -17 -22 -21 -13 -5 -13 -2 3 15 21 24 26 25 19 6z m1216 10 c0 -3
-4 -8 -10 -11 -5 -3 -10 -1 -10 4 0 6 5 11 10 11 6 0 10 -2 10 -4z m-1640 -72
c19 -47 21 -57 9 -65 -33 -21 -43 -6 -44 63 -1 37 2 65 6 63 3 -3 17 -30 29
-61z m64 -34 c-17 -18 -25 -9 -53 55 l-22 50 44 -45 c38 -39 43 -47 31 -60z
m856 90 c0 -5 -5 -10 -11 -10 -5 0 -7 5 -4 10 3 6 8 10 11 10 2 0 4 -4 4 -10z
m-974 -70 c0 -47 -3 -60 -16 -60 -37 1 -41 15 -19 68 12 29 25 52 28 52 4 0 7
-27 7 -60z m1667 54 c3 -4 2 -15 -4 -26 -8 -15 -13 -17 -25 -7 -11 9 -12 15
-3 25 12 15 22 17 32 8z m-293 -34 c0 -5 -5 -10 -11 -10 -5 0 -7 5 -4 10 3 6
8 10 11 10 2 0 4 -4 4 -10z m64 -31 c-12 -25 -18 -28 -34 -19 -11 6 -20 15
-20 20 0 14 41 39 56 33 11 -4 11 -10 -2 -34z m62 -9 c0 -41 -14 -51 -44 -31
-11 6 -10 15 4 44 21 44 40 39 40 -13z m64 9 c14 -34 13 -38 -20 -41 -22 -3
-25 1 -25 32 -1 19 0 38 2 42 7 14 32 -4 43 -33z m58 18 c10 -8 9 -14 -5 -29
-16 -18 -17 -18 -30 4 -24 45 -7 57 35 25z m-1178 -1 c0 -7 -6 -21 -14 -32
-14 -18 -16 -18 -32 -2 -13 13 -15 20 -6 30 14 18 52 20 52 4z m55 -19 c2 -35
-8 -50 -31 -45 -13 3 -18 11 -16 28 5 51 45 66 47 17z m65 3 c14 -35 14 -36
-21 -45 -24 -6 -25 -4 -23 32 2 46 1 43 18 43 7 0 19 -14 26 -30z m59 16 c9
-10 7 -17 -5 -27 -14 -11 -18 -10 -30 6 -8 10 -14 22 -14 27 0 13 37 9 49 -6z
m316 -16 c-13 -26 -19 -29 -35 -20 -11 6 -20 14 -20 18 0 16 25 32 47 32 23 0
23 -1 8 -30z m61 -10 c-1 -41 -14 -50 -44 -31 -12 7 -11 14 2 40 23 44 43 40
42 -9z m64 10 c15 -35 14 -36 -21 -45 -25 -6 -26 -5 -25 34 1 51 27 56 46 11z
m59 16 c9 -10 7 -17 -5 -27 -14 -11 -18 -10 -30 6 -8 10 -14 22 -14 27 0 13
37 9 49 -6z"/>
<path d="M1455 2009 c-4 -6 -5 -12 -2 -15 2 -3 7 2 10 11 7 17 1 20 -8 4z"/>
<path d="M1606 2005 c-11 -8 -16 -15 -10 -15 5 0 2 -5 -6 -10 -10 -7 -11 -10
-2 -10 7 0 15 7 18 15 4 8 9 13 13 10 4 -2 8 2 8 10 0 8 -1 15 -1 15 -1 0 -10
-7 -20 -15z"/>
<path d="M1294 1996 c1 -8 5 -18 8 -22 4 -3 5 1 4 10 -1 8 -5 18 -8 22 -4 3
-5 -1 -4 -10z"/>
<path d="M1346 1997 c3 -10 9 -15 12 -12 3 3 0 11 -7 18 -10 9 -11 8 -5 -6z"/>
<path d="M1390 1995 c0 -8 4 -15 8 -15 5 0 9 7 9 15 0 8 -4 15 -9 15 -4 0 -8
-7 -8 -15z"/>
<path d="M1473 1992 c-8 -14 -8 -19 1 -19 7 0 13 9 13 19 1 10 1 18 0 18 -1 0
-7 -8 -14 -18z"/>
<path d="M1556 1995 c4 -8 8 -15 10 -15 2 0 4 7 4 15 0 8 -4 15 -10 15 -5 0
-7 -7 -4 -15z"/>
<path d="M2270 2000 c0 -5 7 -7 15 -4 8 4 15 8 15 10 0 2 -7 4 -15 4 -8 0 -15
-4 -15 -10z"/>
<path d="M1256 1982 c-3 -5 1 -9 9 -9 8 0 12 4 9 9 -3 4 -7 8 -9 8 -2 0 -6 -4
-9 -8z"/>
<path d="M1540 1975 c8 -9 9 -15 2 -15 -6 0 -14 5 -17 10 -3 6 -11 10 -18 10
-6 0 -1 -7 11 -16 12 -8 26 -13 30 -10 5 3 16 -4 25 -15 18 -21 37 -25 37 -8
0 5 -4 8 -9 5 -5 -3 -19 8 -32 24 -13 16 -28 30 -33 30 -5 0 -3 -7 4 -15z"/>
<path d="M1993 1975 c-11 -8 -24 -11 -28 -7 -5 4 -5 1 -1 -6 5 -7 10 -11 13
-8 3 3 15 0 27 -6 11 -7 24 -12 28 -13 3 0 10 -4 15 -9 4 -5 3 -6 -3 -3 -6 4
-17 -6 -23 -21 -9 -18 -9 -28 -2 -30 6 -2 8 -9 5 -14 -5 -7 -2 -8 7 -2 8 5 28
9 44 9 22 0 30 5 30 18 0 10 6 22 13 26 11 7 11 9 -2 14 -9 4 -15 1 -13 -5 1
-5 -6 -12 -16 -13 -12 -2 -24 9 -37 35 -25 48 -32 53 -57 35z m37 -15 c0 -5
-4 -10 -10 -10 -5 0 -10 5 -10 10 0 6 5 10 10 10 6 0 10 -4 10 -10z m54 -65
c5 0 11 -7 13 -15 4 -12 3 -12 -5 -1 -7 9 -11 10 -17 2 -5 -9 -10 -9 -21 0
-11 9 -14 9 -14 0 0 -7 -5 -9 -12 -5 -8 5 -6 11 7 20 10 7 23 10 29 6 6 -4 15
-7 20 -7z"/>
<path d="M1435 1970 c-3 -5 -3 -10 2 -10 4 0 1 -5 -7 -11 -12 -8 -12 -10 -1
-7 8 2 15 12 17 21 3 19 -2 22 -11 7z"/>
<path d="M1896 1972 c-3 -4 4 -9 15 -9 23 -2 25 3 4 10 -8 4 -16 3 -19 -1z"/>
<path d="M1610 1964 c0 -6 3 -14 7 -18 4 -3 7 -15 8 -26 2 -20 -17 -23 -42 -7
-8 5 -13 4 -13 -2 0 -6 5 -12 10 -12 6 -1 14 -2 19 -3 6 0 19 -11 31 -24 22
-23 40 -22 40 4 0 8 4 14 8 14 5 0 9 7 9 16 0 14 -2 14 -14 -2 -7 -10 -13 -24
-13 -32 0 -12 -3 -12 -15 -2 -16 14 -21 35 -6 25 6 -3 15 4 21 15 7 13 7 20 0
20 -5 0 -10 -8 -10 -17 0 -14 -2 -15 -12 -4 -11 10 -9 15 7 28 16 12 16 14 3
10 -11 -4 -21 0 -27 11 -6 9 -11 12 -11 6z"/>
<path d="M1856 1938 c3 -5 10 -6 15 -3 13 9 11 12 -6 12 -8 0 -12 -4 -9 -9z"/>
<path d="M1516 1928 c5 -7 2 -9 -8 -6 -8 4 -15 0 -15 -7 0 -10 5 -11 19 -4 20
11 24 29 7 29 -5 0 -7 -5 -3 -12z"/>
<path d="M1551 1924 c0 -11 3 -14 6 -6 3 7 2 16 -1 19 -3 4 -6 -2 -5 -13z"/>
<path d="M2147 1909 c7 -7 15 -10 18 -7 3 3 -2 9 -12 12 -14 6 -15 5 -6 -5z"/>
<path d="M2228 1915 c-3 -4 -12 -8 -20 -9 -18 -4 -64 -24 -58 -26 3 -1 18 -4
35 -6 16 -3 34 -12 38 -20 6 -11 12 -12 22 -4 7 6 19 9 26 8 8 -2 14 5 14 17
0 12 -6 19 -14 17 -7 -1 -18 4 -25 13 -6 9 -14 13 -18 10z m7 -15 c-3 -5 0
-10 7 -11 10 0 10 -2 -1 -6 -11 -5 -11 -7 0 -15 11 -8 11 -9 -1 -5 -19 5 -22
47 -4 47 3 0 2 -4 -1 -10z m-31 -8 c3 -5 -1 -9 -9 -9 -8 0 -12 4 -9 9 3 4 7 8
9 8 2 0 6 -4 9 -8z m73 -17 c0 -8 -4 -12 -9 -9 -5 3 -6 10 -3 15 9 13 12 11
12 -6z"/>
<path d="M1554 1886 c1 -8 5 -18 8 -22 4 -3 5 1 4 10 -1 8 -5 18 -8 22 -4 3
-5 -1 -4 -10z"/>
<path d="M1755 1876 c10 -14 19 -26 22 -26 7 0 -17 39 -28 46 -6 3 -3 -5 6
-20z"/>
<path d="M1500 1879 c0 -5 5 -7 10 -4 6 3 10 8 10 11 0 2 -4 4 -10 4 -5 0 -10
-5 -10 -11z"/>
<path d="M1870 1879 c0 -5 5 -7 10 -4 6 3 10 8 10 11 0 2 -4 4 -10 4 -5 0 -10
-5 -10 -11z"/>
<path d="M1587 1867 c-3 -7 3 -13 13 -13 10 0 16 6 13 13 -3 7 -9 13 -13 13
-4 0 -10 -6 -13 -13z"/>
<path d="M1695 1859 c-4 -6 -5 -12 -2 -15 2 -3 7 2 10 11 7 17 1 20 -8 4z"/>
<path d="M1810 1859 c0 -5 5 -7 10 -4 6 3 10 8 10 11 0 2 -4 4 -10 4 -5 0 -10
-5 -10 -11z"/>
<path d="M1895 1860 c3 -5 8 -10 11 -10 2 0 4 5 4 10 0 6 -5 10 -11 10 -5 0
-7 -4 -4 -10z"/>
<path d="M1975 1849 c-4 -6 -5 -12 -2 -15 2 -3 7 2 10 11 7 17 1 20 -8 4z"/>
<path d="M1630 1840 c0 -5 5 -10 11 -10 5 0 7 5 4 10 -3 6 -8 10 -11 10 -2 0
-4 -4 -4 -10z"/>
<path d="M1716 1841 c9 -9 34 -9 34 -1 0 5 -9 8 -20 7 -10 -1 -17 -3 -14 -6z"/>
<path d="M2045 1840 c3 -5 8 -10 11 -10 2 0 4 5 4 10 0 6 -5 10 -11 10 -5 0
-7 -4 -4 -10z"/>
<path d="M2073 1805 c0 -8 4 -12 9 -9 5 3 6 10 3 15 -9 13 -12 11 -12 -6z"/>
<path d="M2175 1793 c2 -10 4 -20 4 -23 1 -3 5 2 10 10 10 15 6 30 -9 30 -4 0
-7 -8 -5 -17z"/>
<path d="M2206 1793 c-4 -9 -4 -18 -1 -21 3 -3 5 0 5 6 0 7 5 12 11 12 5 0 7
-5 3 -11 -4 -7 1 -7 16 1 24 13 20 22 -9 27 -11 1 -22 -5 -25 -14z"/>
<path d="M2315 1749 c-4 -6 -5 -12 -2 -15 2 -3 7 2 10 11 7 17 1 20 -8 4z"/>
<path d="M2130 1723 c5 -2 8 -9 5 -13 -3 -5 -1 -11 4 -14 5 -4 8 2 7 11 -2 9
-8 18 -15 19 -6 1 -7 0 -1 -3z"/>
</g>
</svg>
